<svg xmlns="http://www.w3.org/2000/svg" viewBox="0 0 24 24" fill="none" stroke="currentColor" stroke-width="2" stroke-linecap="round" stroke-linejoin="round">
  <!-- Outer Decorative Arch -->
  <path d="M3 21h18" />
  <path d="M5 21V11c0-3 3-5 7-5s7 2 7 5v10" />
  
  <!-- Inner Gate Columns and Arch -->
  <path d="M9 21v-7c0-1.5 1-2.5 3-2.5s3 1 3 2.5v7" />
  
  <!-- Thoran Pinnacle / Top Stupa decoration -->
  <path d="M12 2v4" />
  <path d="M10 6h4" />
  <path d="M12 6L9 9h6z" />
  
  <!-- Tiered horizontal design lines -->
  <path d="M4 11h16" />
  <path d="M4 15h16" />
  
  <!-- Radiating light ray lines -->
  <path d="M6 5L8 7" />
  <path d="M18 5l-2 2" />
  <path d="M3 9h2" />
  <path d="M19 9h2" />
  
  <!-- Decorative side circles representing lights -->
  <circle cx="12" cy="14" r="1" fill="currentColor" />
  <circle cx="7" cy="13" r="0.7" fill="currentColor" />
  <circle cx="17" cy="13" r="0.7" fill="currentColor" />
</svg>
